# xmcd
#
# Track frame offsets: 
#        150
#        1887
#        21213
#        36326
#        55651
#        70989
#        89769
#        105681
#        122212
#        138957
#        157359
#        183828
#        198610
#        242125
#
# Disc length: 3433 seconds
#
# Revision: 0
# Processed by: cddbd v1.5.2PL0 Copyright (c) Steve Scherf et al.
# Submitted via: ExactAudioCopyFreeDBPlugin 1.0
#
DISCID=c80d670e
DTITLE=Doug Sahm - Inlaws And Outlaws - 1973 Radio Broadcast
DYEAR=2013
DGENRE=Country
TTITLE0=introduction
TTITLE1=Oh, Pretty Woman
TTITLE2=I'm Glad For Your Sake
TTITLE3=She's About A Mover
TTITLE4=Are Inlaws Really Outlaws
TTITLE5=Talk To Me
TTITLE6=(Is Anybody Going To) San Antone
TTITLE7=Wolverton Mountain
TTITLE8=Jambalaya
TTITLE9=Right Or Wrong
TTITLE10=Stormy Monday
TTITLE11=The Rains Came
TTITLE12=Papa Ain't Salty
TTITLE13=Mendocino
EXTD=
EXTT0=
EXTT1=
EXTT2=
EXTT3=
EXTT4=
EXTT5=
EXTT6=
EXTT7=
EXTT8=
EXTT9=
EXTT10=
EXTT11=
EXTT12=
EXTT13=
PLAYORDER=
